<svg xmlns="http://www.w3.org/2000/svg" width="73" height="73" viewBox="0 0 73 73">
  <g id="Group_233" data-name="Group 233" transform="translate(-1002 -643)">
    <circle id="Ellipse_673" data-name="Ellipse 673" cx="36.5" cy="36.5" r="36.5" transform="translate(1002 643)" fill="#fff"/>
    <path id="Union_2" data-name="Union 2" d="M5.672,36A5.672,5.672,0,0,1,0,30.328V9.532A5.671,5.671,0,0,1,5.672,3.862h9.452V7.642H5.672a1.89,1.89,0,0,0,0,3.781h18.9a5.672,5.672,0,0,1,5.672,5.672V30.328A5.672,5.672,0,0,1,24.576,36ZM18.9,26.547h3.781V20.876H18.9Zm4.609-16.206V6.647H19.82V3.693h3.693V0h2.954V3.693h3.693V6.647H26.468v3.694Z" transform="translate(1023 662)" fill="#a4bae6"/>
  </g>
</svg>
