<svg xmlns="http://www.w3.org/2000/svg" width="73" height="73" viewBox="0 0 73 73">
  <g id="Group_235" data-name="Group 235" transform="translate(-1002 -643)">
    <circle id="Ellipse_673" data-name="Ellipse 673" cx="36.5" cy="36.5" r="36.5" transform="translate(1002 643)" fill="#fff"/>
    <path id="download_7_" data-name="download (7)" d="M187.6,182.2h-2.4v-6H156.4v6a2.366,2.366,0,0,0-1.695.705A2.394,2.394,0,0,0,154,184.6v21.6a2.408,2.408,0,0,0,2.4,2.4h31.2a2.38,2.38,0,0,0,1.695-.705A2.429,2.429,0,0,0,190,206.2V184.6a2.38,2.38,0,0,0-.706-1.695,2.428,2.428,0,0,0-1.695-.705Zm-28.8-3.6h24v3.6h-24Zm20.4,12a2.409,2.409,0,0,0-2.4,2.4v4.8h0a2.367,2.367,0,0,0,.705,1.695,2.4,2.4,0,0,0,1.695.705h8.4v6H162.4V184.6h25.2v6Z" transform="translate(867 486.8)" fill="#a4bae6"/>
  </g>
</svg>
