<svg xmlns="http://www.w3.org/2000/svg" width="73" height="73" viewBox="0 0 73 73">
  <g id="Group_231" data-name="Group 231" transform="translate(-1002 -643)">
    <circle id="Ellipse_673" data-name="Ellipse 673" cx="36.5" cy="36.5" r="36.5" transform="translate(1002 643)" fill="#fff"/>
    <g id="download_4_" data-name="download (4)" transform="translate(821.586 462.59)">
      <path id="Subtraction_1" data-name="Subtraction 1" d="M32.25,36H3.75A3.754,3.754,0,0,1,0,32.25V3.75A3.754,3.754,0,0,1,3.75,0h28.5A3.754,3.754,0,0,1,36,3.75v28.5A3.754,3.754,0,0,1,32.25,36ZM24,30a.75.75,0,0,0,0,1.5h6.75a.75.75,0,0,0,0-1.5ZM5.249,26.25A.751.751,0,0,0,4.5,27v3.75a.755.755,0,0,0,.219.53.745.745,0,0,0,.531.22H12a.753.753,0,0,0,.53-.22.744.744,0,0,0,.22-.53V27a.75.75,0,0,0-.75-.75ZM24,26.25a.75.75,0,0,0,0,1.5h6.75a.75.75,0,0,0,0-1.5ZM13.5,1.5v6a2.253,2.253,0,0,0,2.25,2.25h4.5A2.253,2.253,0,0,0,22.5,7.5v-6h-9ZM11.249,30H6V27.75h5.25V30Z" transform="translate(198.414 198.41)" fill="#a4bae6"/>
    </g>
  </g>
</svg>
