<svg xmlns="http://www.w3.org/2000/svg" width="73" height="73" viewBox="0 0 73 73">
  <g id="Group_232" data-name="Group 232" transform="translate(-1002 -643)">
    <circle id="Ellipse_673" data-name="Ellipse 673" cx="36.5" cy="36.5" r="36.5" transform="translate(1002 643)" fill="#fff"/>
    <g id="price" transform="translate(778.1 463.6)">
      <path id="Path_1389" data-name="Path 1389" d="M272.14,200.153a6.006,6.006,0,0,0-4.247-1.753H251.9a5.986,5.986,0,0,0-6,6v24a5.986,5.986,0,0,0,6,6h16a5.986,5.986,0,0,0,6-6v-24A6.059,6.059,0,0,0,272.14,200.153ZM266.9,228.4H252.893a1,1,0,1,1,0-2.007h14a1,1,0,0,1,.01,2.007Zm0-4h-14a1,1,0,1,1,0-2.007h14a1,1,0,1,1,0,2.007Zm-7-5.088a8.392,8.392,0,1,1,8.392-8.392A8.4,8.4,0,0,1,259.9,219.309Z" transform="translate(0)" fill="#a4bae6"/>
      <path id="Path_1390" data-name="Path 1390" d="M358.961,282.178h2.046V280.7H353.9v1.561h2.223a1.907,1.907,0,0,1,1.774,1.171h-4v1.478h4a1.931,1.931,0,0,1-1.774,1.171H353.9v1.892l3.606,3.642h2.188l-3.914-3.973h.355a3.476,3.476,0,0,0,3.405-2.743h1.5V283.42h-1.5A3.729,3.729,0,0,0,358.961,282.178Z" transform="translate(-97.564 -74.447)" fill="#a4bae6"/>
    </g>
  </g>
</svg>
