<svg xmlns="http://www.w3.org/2000/svg" xmlns:xlink="http://www.w3.org/1999/xlink" width="73" height="73" viewBox="0 0 73 73">
  <defs>
    <clipPath id="clip-path">
      <path id="Path_1392" data-name="Path 1392" d="M139.21,139.21h36v36h-36Z" fill="#a4bae6"/>
    </clipPath>
  </defs>
  <g id="Group_234" data-name="Group 234" transform="translate(-1002 -643)">
    <circle id="Ellipse_673" data-name="Ellipse 673" cx="36.5" cy="36.5" r="36.5" transform="translate(1002 643)" fill="#fff"/>
    <g id="download_8_" data-name="download (8)" transform="translate(881.79 522.79)" clip-path="url(#clip-path)">
      <path id="Path_1391" data-name="Path 1391" d="M164.353,144.863l2.391-1.844a1.292,1.292,0,0,1,1.728,0l.567.567,1.815,1.805.557.567a1.294,1.294,0,0,1,0,1.738l-1.844,2.381A14.411,14.411,0,0,1,171,153.535l3,.384a1.288,1.288,0,0,1,1.22,1.22V159.3a1.3,1.3,0,0,1-1.22,1.229l-3,.374a14.278,14.278,0,0,1-1.431,3.457l1.844,2.391a1.282,1.282,0,0,1,0,1.728l-.557.567-1.815,1.815-.567.557a1.282,1.282,0,0,1-1.728,0l-2.391-1.844A14.254,14.254,0,0,1,160.9,171l-.374,3a1.3,1.3,0,0,1-1.229,1.22h-4.158a1.288,1.288,0,0,1-1.22-1.22l-.384-3a14.437,14.437,0,0,1-3.457-1.431l-2.381,1.844a1.294,1.294,0,0,1-1.738,0l-.567-.557-1.805-1.815-.567-.567a1.292,1.292,0,0,1,0-1.728l1.844-2.391a14.253,14.253,0,0,1-1.431-3.457l-2.986-.374a1.3,1.3,0,0,1-1.229-1.229v-4.158a1.29,1.29,0,0,1,1.229-1.22l2.986-.384a14.437,14.437,0,0,1,1.431-3.457l-1.844-2.381a1.3,1.3,0,0,1,0-1.738l2.939-2.939a1.3,1.3,0,0,1,1.738,0l2.381,1.844a14.412,14.412,0,0,1,3.457-1.431l.384-2.986v-.029l.01-.038v-.029l.01-.029v-.029l.01-.029.01-.038.076-.23.019-.029.01-.019.01-.029.019-.029.009-.029.019-.019.01-.029.019-.029.019-.019.01-.029.019-.019.019-.029.039-.039.019-.029.058-.058.019-.029.039-.039.019-.01.029-.019.019-.019.029-.019.019-.019c.019-.01.029-.019.048-.029l.019-.009.029-.019.029-.01.019-.019.086-.029.019-.01.115-.038h.029l.029-.009c.019,0,.038-.01.058-.01a.143.143,0,0,0,.067-.01h4.244a1.3,1.3,0,0,1,1.229,1.229l.374,2.986a14.278,14.278,0,0,1,3.457,1.431Zm-7.135,6.943a5.41,5.41,0,1,1-3.831,1.584A5.393,5.393,0,0,1,157.218,151.806Zm2.016,3.4a2.852,2.852,0,1,0-2.016,4.859,2.852,2.852,0,0,0,2.016-4.859Zm-2.016-8.556a10.567,10.567,0,1,1-10.572,10.572A10.571,10.571,0,0,1,157.218,146.65Z" transform="translate(-0.003 -0.007)" fill="#a4bae6"/>
    </g>
  </g>
</svg>
